<svg width="699" height="471" viewBox="0 0 699 471" fill="none" xmlns="http://www.w3.org/2000/svg">
<rect width="699" height="471" fill="none"/>
<path d="M307.98 364V346.938H313.559C315.41 346.938 316.801 347.32 317.73 348.086C318.668 348.852 319.137 349.984 319.137 351.484C319.137 352.281 318.91 352.988 318.457 353.605C318.004 354.215 317.387 354.688 316.605 355.023C317.527 355.281 318.254 355.773 318.785 356.5C319.324 357.219 319.594 358.078 319.594 359.078C319.594 360.609 319.098 361.812 318.105 362.688C317.113 363.562 315.711 364 313.898 364H307.98ZM310.23 356.02V362.16H313.945C314.992 362.16 315.816 361.891 316.418 361.352C317.027 360.805 317.332 360.055 317.332 359.102C317.332 357.047 316.215 356.02 313.98 356.02H310.23ZM310.23 354.215H313.629C314.613 354.215 315.398 353.969 315.984 353.477C316.578 352.984 316.875 352.316 316.875 351.473C316.875 350.535 316.602 349.855 316.055 349.434C315.508 349.004 314.676 348.789 313.559 348.789H310.23V354.215ZM336.059 356.02C336.059 357.691 335.777 359.152 335.215 360.402C334.652 361.645 333.855 362.594 332.824 363.25C331.793 363.906 330.59 364.234 329.215 364.234C327.871 364.234 326.68 363.906 325.641 363.25C324.602 362.586 323.793 361.645 323.215 360.426C322.645 359.199 322.352 357.781 322.336 356.172V354.941C322.336 353.301 322.621 351.852 323.191 350.594C323.762 349.336 324.566 348.375 325.605 347.711C326.652 347.039 327.848 346.703 329.191 346.703C330.559 346.703 331.762 347.035 332.801 347.699C333.848 348.355 334.652 349.312 335.215 350.57C335.777 351.82 336.059 353.277 336.059 354.941V356.02ZM333.82 354.918C333.82 352.895 333.414 351.344 332.602 350.266C331.789 349.18 330.652 348.637 329.191 348.637C327.77 348.637 326.648 349.18 325.828 350.266C325.016 351.344 324.598 352.844 324.574 354.766V356.02C324.574 357.98 324.984 359.523 325.805 360.648C326.633 361.766 327.77 362.324 329.215 362.324C330.668 362.324 331.793 361.797 332.59 360.742C333.387 359.68 333.797 358.16 333.82 356.184V354.918ZM350.895 348.789H345.41V364H343.172V348.789H337.699V346.938H350.895V348.789Z" fill="white"/>
<rect x="279.5" y="321.5" width="99" height="69" rx="6.5" stroke="white" stroke-width="3"/>
<path d="M314.98 81V63.9375H319.797C321.281 63.9375 322.594 64.2656 323.734 64.9219C324.875 65.5781 325.754 66.5117 326.371 67.7227C326.996 68.9336 327.312 70.3242 327.32 71.8945V72.9844C327.32 74.5938 327.008 76.0039 326.383 77.2148C325.766 78.4258 324.879 79.3555 323.723 80.0039C322.574 80.6523 321.234 80.9844 319.703 81H314.98ZM317.23 65.7891V79.1602H319.598C321.332 79.1602 322.68 78.6211 323.641 77.543C324.609 76.4648 325.094 74.9297 325.094 72.9375V71.9414C325.094 70.0039 324.637 68.5 323.723 67.4297C322.816 66.3516 321.527 65.8047 319.855 65.7891H317.23ZM330.73 81V63.9375H336.309C338.16 63.9375 339.551 64.3203 340.48 65.0859C341.418 65.8516 341.887 66.9844 341.887 68.4844C341.887 69.2812 341.66 69.9883 341.207 70.6055C340.754 71.2148 340.137 71.6875 339.355 72.0234C340.277 72.2812 341.004 72.7734 341.535 73.5C342.074 74.2188 342.344 75.0781 342.344 76.0781C342.344 77.6094 341.848 78.8125 340.855 79.6875C339.863 80.5625 338.461 81 336.648 81H330.73ZM332.98 73.0195V79.1602H336.695C337.742 79.1602 338.566 78.8906 339.168 78.3516C339.777 77.8047 340.082 77.0547 340.082 76.1016C340.082 74.0469 338.965 73.0195 336.73 73.0195H332.98ZM332.98 71.2148H336.379C337.363 71.2148 338.148 70.9688 338.734 70.4766C339.328 69.9844 339.625 69.3164 339.625 68.4727C339.625 67.5352 339.352 66.8555 338.805 66.4336C338.258 66.0039 337.426 65.7891 336.309 65.7891H332.98V71.2148Z" fill="white"/>
<rect x="286.5" y="38.5" width="84" height="69" rx="6.5" stroke="white" stroke-width="3"/>
<path d="M321.402 220.547H314.254L312.648 225H310.328L316.844 207.938H318.812L325.34 225H323.031L321.402 220.547ZM314.934 218.695H320.734L317.828 210.715L314.934 218.695ZM329.887 218.32V225H327.637V207.938H333.93C335.797 207.938 337.258 208.414 338.312 209.367C339.375 210.32 339.906 211.582 339.906 213.152C339.906 214.809 339.387 216.086 338.348 216.984C337.316 217.875 335.836 218.32 333.906 218.32H329.887ZM329.887 216.48H333.93C335.133 216.48 336.055 216.199 336.695 215.637C337.336 215.066 337.656 214.246 337.656 213.176C337.656 212.16 337.336 211.348 336.695 210.738C336.055 210.129 335.176 209.812 334.059 209.789H329.887V216.48ZM345.191 225H342.941V207.938H345.191V225Z" fill="white"/>
<rect x="283.5" y="182.5" width="91" height="69" rx="6.5" stroke="white" stroke-width="3"/>
<path d="M98.1055 217.02C98.1055 218.691 97.8242 220.152 97.2617 221.402C96.6992 222.645 95.9023 223.594 94.8711 224.25C93.8398 224.906 92.6367 225.234 91.2617 225.234C89.918 225.234 88.7266 224.906 87.6875 224.25C86.6484 223.586 85.8398 222.645 85.2617 221.426C84.6914 220.199 84.3984 218.781 84.3828 217.172V215.941C84.3828 214.301 84.668 212.852 85.2383 211.594C85.8086 210.336 86.6133 209.375 87.6523 208.711C88.6992 208.039 89.8945 207.703 91.2383 207.703C92.6055 207.703 93.8086 208.035 94.8477 208.699C95.8945 209.355 96.6992 210.312 97.2617 211.57C97.8242 212.82 98.1055 214.277 98.1055 215.941V217.02ZM95.8672 215.918C95.8672 213.895 95.4609 212.344 94.6484 211.266C93.8359 210.18 92.6992 209.637 91.2383 209.637C89.8164 209.637 88.6953 210.18 87.875 211.266C87.0625 212.344 86.6445 213.844 86.6211 215.766V217.02C86.6211 218.98 87.0312 220.523 87.8516 221.648C88.6797 222.766 89.8164 223.324 91.2617 223.324C92.7148 223.324 93.8398 222.797 94.6367 221.742C95.4336 220.68 95.8438 219.16 95.8672 217.184V215.918ZM110.645 220.547H103.496L101.891 225H99.5703L106.086 207.938H108.055L114.582 225H112.273L110.645 220.547ZM104.176 218.695H109.977L107.07 210.715L104.176 218.695ZM128.68 207.938V219.539C128.672 221.148 128.164 222.465 127.156 223.488C126.156 224.512 124.797 225.086 123.078 225.211L122.48 225.234C120.613 225.234 119.125 224.73 118.016 223.723C116.906 222.715 116.344 221.328 116.328 219.562V207.938H118.555V219.492C118.555 220.727 118.895 221.688 119.574 222.375C120.254 223.055 121.223 223.395 122.48 223.395C123.754 223.395 124.727 223.055 125.398 222.375C126.078 221.695 126.418 220.738 126.418 219.504V207.938H128.68ZM144.02 209.789H138.535V225H136.297V209.789H130.824V207.938H144.02V209.789ZM159.664 225H157.402V217.113H148.801V225H146.551V207.938H148.801V215.273H157.402V207.938H159.664V225Z" fill="white"/>
<rect x="56.5" y="182.5" width="132" height="69" rx="6.5" stroke="white" stroke-width="3"/>
<path d="M486.98 364V346.938H491.797C493.281 346.938 494.594 347.266 495.734 347.922C496.875 348.578 497.754 349.512 498.371 350.723C498.996 351.934 499.312 353.324 499.32 354.895V355.984C499.32 357.594 499.008 359.004 498.383 360.215C497.766 361.426 496.879 362.355 495.723 363.004C494.574 363.652 493.234 363.984 491.703 364H486.98ZM489.23 348.789V362.16H491.598C493.332 362.16 494.68 361.621 495.641 360.543C496.609 359.465 497.094 357.93 497.094 355.938V354.941C497.094 353.004 496.637 351.5 495.723 350.43C494.816 349.352 493.527 348.805 491.855 348.789H489.23ZM505.145 364H502.895V346.938H505.145V364ZM514.297 356.395C512.367 355.84 510.961 355.16 510.078 354.355C509.203 353.543 508.766 352.543 508.766 351.355C508.766 350.012 509.301 348.902 510.371 348.027C511.449 347.145 512.848 346.703 514.566 346.703C515.738 346.703 516.781 346.93 517.695 347.383C518.617 347.836 519.328 348.461 519.828 349.258C520.336 350.055 520.59 350.926 520.59 351.871H518.328C518.328 350.84 518 350.031 517.344 349.445C516.688 348.852 515.762 348.555 514.566 348.555C513.457 348.555 512.59 348.801 511.965 349.293C511.348 349.777 511.039 350.453 511.039 351.32C511.039 352.016 511.332 352.605 511.918 353.09C512.512 353.566 513.516 354.004 514.93 354.402C516.352 354.801 517.461 355.242 518.258 355.727C519.062 356.203 519.656 356.762 520.039 357.402C520.43 358.043 520.625 358.797 520.625 359.664C520.625 361.047 520.086 362.156 519.008 362.992C517.93 363.82 516.488 364.234 514.684 364.234C513.512 364.234 512.418 364.012 511.402 363.566C510.387 363.113 509.602 362.496 509.047 361.715C508.5 360.934 508.227 360.047 508.227 359.055H510.488C510.488 360.086 510.867 360.902 511.625 361.504C512.391 362.098 513.41 362.395 514.684 362.395C515.871 362.395 516.781 362.152 517.414 361.668C518.047 361.184 518.363 360.523 518.363 359.688C518.363 358.852 518.07 358.207 517.484 357.754C516.898 357.293 515.836 356.84 514.297 356.395ZM536.07 358.586C535.859 360.391 535.191 361.785 534.066 362.77C532.949 363.746 531.461 364.234 529.602 364.234C527.586 364.234 525.969 363.512 524.75 362.066C523.539 360.621 522.934 358.688 522.934 356.266V354.625C522.934 353.039 523.215 351.645 523.777 350.441C524.348 349.238 525.152 348.316 526.191 347.676C527.23 347.027 528.434 346.703 529.801 346.703C531.613 346.703 533.066 347.211 534.16 348.227C535.254 349.234 535.891 350.633 536.07 352.422H533.809C533.613 351.062 533.188 350.078 532.531 349.469C531.883 348.859 530.973 348.555 529.801 348.555C528.363 348.555 527.234 349.086 526.414 350.148C525.602 351.211 525.195 352.723 525.195 354.684V356.336C525.195 358.188 525.582 359.66 526.355 360.754C527.129 361.848 528.211 362.395 529.602 362.395C530.852 362.395 531.809 362.113 532.473 361.551C533.145 360.98 533.59 359.992 533.809 358.586H536.07ZM552.277 356.02C552.277 357.691 551.996 359.152 551.434 360.402C550.871 361.645 550.074 362.594 549.043 363.25C548.012 363.906 546.809 364.234 545.434 364.234C544.09 364.234 542.898 363.906 541.859 363.25C540.82 362.586 540.012 361.645 539.434 360.426C538.863 359.199 538.57 357.781 538.555 356.172V354.941C538.555 353.301 538.84 351.852 539.41 350.594C539.98 349.336 540.785 348.375 541.824 347.711C542.871 347.039 544.066 346.703 545.41 346.703C546.777 346.703 547.98 347.035 549.02 347.699C550.066 348.355 550.871 349.312 551.434 350.57C551.996 351.82 552.277 353.277 552.277 354.941V356.02ZM550.039 354.918C550.039 352.895 549.633 351.344 548.82 350.266C548.008 349.18 546.871 348.637 545.41 348.637C543.988 348.637 542.867 349.18 542.047 350.266C541.234 351.344 540.816 352.844 540.793 354.766V356.02C540.793 357.98 541.203 359.523 542.023 360.648C542.852 361.766 543.988 362.324 545.434 362.324C546.887 362.324 548.012 361.797 548.809 360.742C549.605 359.68 550.016 358.16 550.039 356.184V354.918ZM561.91 357.098H557.902V364H555.641V346.938H561.289C563.211 346.938 564.688 347.375 565.719 348.25C566.758 349.125 567.277 350.398 567.277 352.07C567.277 353.133 566.988 354.059 566.41 354.848C565.84 355.637 565.043 356.227 564.02 356.617L568.027 363.859V364H565.613L561.91 357.098ZM557.902 355.258H561.359C562.477 355.258 563.363 354.969 564.02 354.391C564.684 353.812 565.016 353.039 565.016 352.07C565.016 351.016 564.699 350.207 564.066 349.645C563.441 349.082 562.535 348.797 561.348 348.789H557.902V355.258ZM570.441 364V346.938H575.258C576.742 346.938 578.055 347.266 579.195 347.922C580.336 348.578 581.215 349.512 581.832 350.723C582.457 351.934 582.773 353.324 582.781 354.895V355.984C582.781 357.594 582.469 359.004 581.844 360.215C581.227 361.426 580.34 362.355 579.184 363.004C578.035 363.652 576.695 363.984 575.164 364H570.441ZM572.691 348.789V362.16H575.059C576.793 362.16 578.141 361.621 579.102 360.543C580.07 359.465 580.555 357.93 580.555 355.938V354.941C580.555 353.004 580.098 351.5 579.184 350.43C578.277 349.352 576.988 348.805 575.316 348.789H572.691Z" fill="#7289DA"/>
<rect x="458.5" y="321.5" width="153" height="69" rx="6.5" stroke="#7289DA" stroke-width="3"/>
<path d="M502.531 219.586C502.32 221.391 501.652 222.785 500.527 223.77C499.41 224.746 497.922 225.234 496.062 225.234C494.047 225.234 492.43 224.512 491.211 223.066C490 221.621 489.395 219.688 489.395 217.266V215.625C489.395 214.039 489.676 212.645 490.238 211.441C490.809 210.238 491.613 209.316 492.652 208.676C493.691 208.027 494.895 207.703 496.262 207.703C498.074 207.703 499.527 208.211 500.621 209.227C501.715 210.234 502.352 211.633 502.531 213.422H500.27C500.074 212.062 499.648 211.078 498.992 210.469C498.344 209.859 497.434 209.555 496.262 209.555C494.824 209.555 493.695 210.086 492.875 211.148C492.062 212.211 491.656 213.723 491.656 215.684V217.336C491.656 219.188 492.043 220.66 492.816 221.754C493.59 222.848 494.672 223.395 496.062 223.395C497.312 223.395 498.27 223.113 498.934 222.551C499.605 221.98 500.051 220.992 500.27 219.586H502.531ZM515.035 220.547H507.887L506.281 225H503.961L510.477 207.938H512.445L518.973 225H516.664L515.035 220.547ZM508.566 218.695H514.367L511.461 210.715L508.566 218.695ZM534.383 225H532.121L523.531 211.852V225H521.27V207.938H523.531L532.145 221.145V207.938H534.383V225ZM544.027 222.012L548.902 207.938H551.363L545.035 225H543.043L536.727 207.938H539.176L544.027 222.012ZM562.191 220.547H555.043L553.438 225H551.117L557.633 207.938H559.602L566.129 225H563.82L562.191 220.547ZM555.723 218.695H561.523L558.617 210.715L555.723 218.695ZM573.453 217.395C571.523 216.84 570.117 216.16 569.234 215.355C568.359 214.543 567.922 213.543 567.922 212.355C567.922 211.012 568.457 209.902 569.527 209.027C570.605 208.145 572.004 207.703 573.723 207.703C574.895 207.703 575.938 207.93 576.852 208.383C577.773 208.836 578.484 209.461 578.984 210.258C579.492 211.055 579.746 211.926 579.746 212.871H577.484C577.484 211.84 577.156 211.031 576.5 210.445C575.844 209.852 574.918 209.555 573.723 209.555C572.613 209.555 571.746 209.801 571.121 210.293C570.504 210.777 570.195 211.453 570.195 212.32C570.195 213.016 570.488 213.605 571.074 214.09C571.668 214.566 572.672 215.004 574.086 215.402C575.508 215.801 576.617 216.242 577.414 216.727C578.219 217.203 578.812 217.762 579.195 218.402C579.586 219.043 579.781 219.797 579.781 220.664C579.781 222.047 579.242 223.156 578.164 223.992C577.086 224.82 575.645 225.234 573.84 225.234C572.668 225.234 571.574 225.012 570.559 224.566C569.543 224.113 568.758 223.496 568.203 222.715C567.656 221.934 567.383 221.047 567.383 220.055H569.645C569.645 221.086 570.023 221.902 570.781 222.504C571.547 223.098 572.566 223.395 573.84 223.395C575.027 223.395 575.938 223.152 576.57 222.668C577.203 222.184 577.52 221.523 577.52 220.688C577.52 219.852 577.227 219.207 576.641 218.754C576.055 218.293 574.992 217.84 573.453 217.395Z" fill="#E73D30"/>
<rect x="461.5" y="182.5" width="146" height="69" rx="6.5" stroke="#E73D30" stroke-width="3"/>
<path d="M446.061 357.061C446.646 356.475 446.646 355.525 446.061 354.939L436.515 345.393C435.929 344.808 434.979 344.808 434.393 345.393C433.808 345.979 433.808 346.929 434.393 347.515L442.879 356L434.393 364.485C433.808 365.071 433.808 366.021 434.393 366.607C434.979 367.192 435.929 367.192 436.515 366.607L446.061 357.061ZM388 357.5H445V354.5H388V357.5Z" fill="white"/>
<path d="M386.939 215.939C386.354 216.525 386.354 217.475 386.939 218.061L396.485 227.607C397.071 228.192 398.021 228.192 398.607 227.607C399.192 227.021 399.192 226.071 398.607 225.485L390.121 217L398.607 208.515C399.192 207.929 399.192 206.979 398.607 206.393C398.021 205.808 397.071 205.808 396.485 206.393L386.939 215.939ZM445 215.5H388V218.5H445V215.5Z" fill="white"/>
<path d="M315.939 310.22C316.525 310.806 317.475 310.806 318.061 310.22L327.607 300.674C328.192 300.089 328.192 299.139 327.607 298.553C327.021 297.967 326.071 297.967 325.485 298.553L317 307.038L308.515 298.553C307.929 297.967 306.979 297.967 306.393 298.553C305.808 299.139 305.808 300.089 306.393 300.674L315.939 310.22ZM315.5 259V309.16H318.5V259H315.5Z" fill="white"/>
<path d="M209.118 200.521C208.532 201.107 208.532 202.057 209.118 202.642L218.664 212.188C219.249 212.774 220.199 212.774 220.785 212.188C221.371 211.603 221.371 210.653 220.785 210.067L212.3 201.582L220.785 193.097C221.371 192.511 221.371 191.561 220.785 190.975C220.199 190.389 219.249 190.389 218.664 190.975L209.118 200.521ZM260.338 200.082H210.178V203.082H260.338V200.082Z" fill="white"/>
<path d="M327.939 171.22C328.525 171.806 329.475 171.806 330.061 171.22L339.607 161.674C340.192 161.089 340.192 160.139 339.607 159.553C339.021 158.967 338.071 158.967 337.485 159.553L329 168.038L320.515 159.553C319.929 158.967 318.979 158.967 318.393 159.553C317.808 160.139 317.808 161.089 318.393 161.674L327.939 171.22ZM327.5 120V170.16H330.5V120H327.5Z" fill="white"/>
<path d="M349.061 257.939C348.475 257.353 347.525 257.353 346.939 257.939L337.393 267.485C336.808 268.071 336.808 269.021 337.393 269.607C337.979 270.192 338.929 270.192 339.515 269.607L348 261.121L356.485 269.607C357.071 270.192 358.021 270.192 358.607 269.607C359.192 269.021 359.192 268.071 358.607 267.485L349.061 257.939ZM349.5 309.16V259H346.5V309.16H349.5Z" fill="white"/>
<path d="M261.883 233.639C262.468 233.053 262.468 232.103 261.883 231.517L252.337 221.971C251.751 221.386 250.801 221.386 250.215 221.971C249.629 222.557 249.629 223.507 250.215 224.093L258.701 232.578L250.215 241.063C249.629 241.649 249.629 242.599 250.215 243.185C250.801 243.77 251.751 243.77 252.337 243.185L261.883 233.639ZM210.662 234.078H260.822V231.078H210.662V234.078Z" fill="white"/>
<path d="M330.061 118.939C329.475 118.354 328.525 118.354 327.939 118.939L318.393 128.485C317.808 129.071 317.808 130.021 318.393 130.607C318.979 131.192 319.929 131.192 320.515 130.607L329 122.121L337.485 130.607C338.071 131.192 339.021 131.192 339.607 130.607C340.192 130.021 340.192 129.071 339.607 128.485L330.061 118.939ZM330.5 170.16V120H327.5V170.16H330.5Z" fill="white"/>
</svg>
